# AST/ASF file generated using VICON BodyLanguage
# -----------------------------------------------
:version 1.10
:name VICON
:units
  mass 1.0
  length 0.45
  angle deg
:documentation
   .ast/.asf automatically generated from VICON data using
   VICON BodyBuilder and BodyLanguage model FoxedUp or BRILLIANT.MOD
:root
   order TX TY TZ RX RY RZ
   axis XYZ
   position 0 0 0  
   orientation 0 0 0 
:bonedata
  begin
     id 1 
     name lhipjoint
     direction 0.653368 -0.678499 0.335782 
     length 2.51848 
     axis 0 0 0  XYZ
  end
  begin
     id 2 
     name lfemur
     direction 0.34202 -0.939693 0  
     length 6.57749  
     axis 0 0 20  XYZ
    dof rx ry rz
    limits (-160.0 20.0)
           (-70.0 70.0)
           (-60.0 70.0)
  end
  begin
     id 3 
     name ltibia
     direction 0.34202 -0.939693 0   
     length 7.94618   
     axis 0 0 20   XYZ
    dof rx
    limits (-10.0 170.0)
  end
  begin
     id 4 
     name lfoot
     direction 0.0811271 -0.222895 0.971461   
     length 2.31339   
     axis -90 7.62852e-016 20   XYZ
    dof rx rz
    limits (-45.0 90.0)
           (-70.0 20.0)
  end
  begin
     id 5 
     name ltoes
     direction 1.53568e-011 -4.21885e-011 1   
     length 1.15935   
     axis -90 7.62852e-016 20   XYZ
    dof rx
    limits (-90.0 20.0)
  end
  begin
     id 6 
     name rhipjoint
     direction -0.640058 -0.688614 0.340788   
     length 2.48149  
     axis 0 0 0  XYZ 
  end
  begin
     id 7 
     name rfemur
     direction -0.34202 -0.939693 0   
     length 6.57875   
     axis 0 0 -20   XYZ
    dof rx ry rz
    limits (-160.0 20.0)
           (-70.0 70.0)
           (-70.0 60.0)
  end
  begin
     id 8 
     name rtibia
     direction -0.34202 -0.939693 0   
     length 7.977   
     axis 0 0 -20   XYZ
    dof rx
    limits (-10.0 170.0)
 end
 begin
     id 9 
     name rfoot
     direction -0.0979793 -0.269196 0.958089   
     length 2.19857  
     axis -90 -7.62852e-016 -20   XYZ
    dof rx rz
    limits (-45.0 90.0)
           (-20.0 70.0)
  end
  begin
     id 10 
     name rtoes
     direction -1.53556e-011 -4.21868e-011 1   
     length 1.09838   
     axis -90 -7.62852e-016 -20   XYZ
    dof rx
    limits (-90.0 20.0)
  end
  begin
     id 11 
     name lowerback
     direction 0.0149039 0.998517 -0.0523597   
     length 2.10809   
     axis 0 0 0   XYZ
    dof rx ry rz
    limits (-20.0 45.0)
           (-30.0 30.0)
           (-30.0 30.0)
  end
  begin
     id 12 
     name upperback
     direction -0.00882659 0.999418 -0.0329624   
     length 2.1102   
     axis 0 0 0   XYZ
    dof rx ry rz
    limits (-20.0 45.0)
           (-30.0 30.0)
           (-30.0 30.0)
  end
  begin
     id 13 
     name thorax
     direction -0.0165585 0.999826 -0.0085833   
     length 2.11039   
     axis 0 0 0   XYZ
    dof rx ry rz
    limits (-20.0 45.0)
           (-30.0 30.0)
           (-30.0 30.0)
  end
  begin
     id 14 
     name lowerneck
     direction -0.0130877 0.999911 0.00260353   
     length 1.73253   
     axis 0 0 0   XYZ
    dof rx ry rz
    limits (-20.0 45.0)
           (-30.0 30.0)
           (-30.0 30.0)
  end
  begin
     id 15 
     name upperneck
     direction -0.0348454 0.928205 -0.370435   
     length 1.66692   
     axis 0 0 0   XYZ
    dof rx ry rz
    limits (-20.0 45.0)
           (-30.0 30.0)
           (-30.0 30.0)
  end
  begin
     id 16
     name head
     direction -0.00807754 0.992494 -0.122026  
     length 1.72765  
     axis 0 0 0   XYZ
    dof rx ry rz
    limits (-20.0 45.0)
           (-30.0 30.0)
           (-30.0 30.0)
  end
  begin
     id 17 
     name lclavicle
     direction 0.987582 0.144023 0.0627671  
     length 3.49235  
     axis 0 0 0   XYZ
    dof ry rz
    limits (-20.0 10.0)
           (0.0 20.0)
  end
  begin
     id 18 
     name lhumerus
     direction 1 -4.48958e-011 -1.45183e-018   
     length 5.41917   
     axis 180 -30 -90   XYZ
    dof rx ry rz
    limits (-60.0 90.0)
           (-90.0 90.0)
           (-90.0 90.0)
  end
  begin
     id 19
     name lradius
     direction 1 -4.48999e-011 5.75106e-027   
     length 2.44373   
     axis 180 -30 -90   XYZ
    dof rx
    limits (-10.0 170.0)
  end
  begin
     id 20
     name lwrist
     direction 1 -4.48987e-011 1.53461e-026   
     length 1.22186   
     axis -1.09697e-014 90 90   XYZ
    dof ry
    limits (-180.0 0.0)
 end
  begin
     id 21 
     name lhand
     direction 1 -4.48881e-011 3.06923e-026   
     length 0.727502   
     axis -1.95843e-014 90 90   XYZ
    dof rx rz
    limits (-90.0 90.0)
           (-45.0 45.0)
  end
  begin
     id 22 
     name lfingers
     direction 1 -4.48907e-011 6.13845e-026   
     length 0.586531   
     axis -3.91686e-014 90 90   XYZ
    dof rx
    limits (0.0 90.0)
  end
  begin
     id 23
     name lthumb
     direction 0.707107 -6.3487e-011 0.707107   
     length 0.842145   
     axis -90 45 2.85299e-015   XYZ
    dof rx rz
    limits (-45.0 45.0)
           (-45.0 45.0)
  end
  begin
     id 24 
     name rclavicle
     direction -0.980998 0.169556 0.0943023   
     length 3.29272  
     axis 0 0 0   XYZ 
    dof ry rz
    limits (-10.0 20.0)
           (-20.0 0.0)
  end
  begin
     id 25 
     name rhumerus
     direction -1 -1.83355e-005 2.45537e-005  
     length 5.58976   
     axis 180 30 90   XYZ
    dof rx ry rz
    limits (-90.0 60.0)
           (-90.0 90.0)
           (-90.0 90.0)
  end
  begin
     id 26 
     name rradius
     direction -1 -4.48967e-011 5.97228e-027   
     length 2.4806   
     axis 180 30 90   XYZ
    dof rx
    limits (-10.0 170.0)
  end
  begin
     id 27 
     name rwrist
     direction -1 -4.48963e-011 1.53461e-026   
     length 1.2403   
     axis -1.09697e-014 -90 -90   XYZ
    dof ry
    limits (-180.0 0.0)
  end
  begin
     id 28
     name rhand
     direction -1 -4.48881e-011 3.06923e-026   
     length 0.816009   
     axis -1.95843e-014 -90 -90   XYZ
    dof rx rz
    limits (-90.0 90.0)
           (-45.0 45.0)
  end
  begin
     id 29
     name rfingers
     direction -1 -4.49018e-011 6.13845e-026   
     length 0.657887   
     axis -3.91686e-014 -90 -90   XYZ
    dof rx
    limits (0.0 90.0)
  end
  begin
     id 30
     name rthumb
     direction -0.707107 -6.34872e-011 0.707107   
     length 0.944599   
     axis -90 -45 -2.85299e-015   XYZ
    dof rx rz
    limits (-45.0 45.0)
           (-45.0 45.0)
  end
:hierarchy
  begin
    root lhipjoint rhipjoint lowerback
    lhipjoint lfemur
    lfemur ltibia
    ltibia lfoot
    lfoot ltoes
    rhipjoint rfemur
    rfemur rtibia
    rtibia rfoot
    rfoot rtoes
    lowerback upperback
    upperback thorax
    thorax lowerneck lclavicle rclavicle
    lowerneck upperneck
    upperneck head
    lclavicle lhumerus
    lhumerus lradius
    lradius lwrist
    lwrist lhand lthumb
    lhand lfingers
    rclavicle rhumerus
    rhumerus rradius
    rradius rwrist
    rwrist rhand rthumb
    rhand rfingers
  end

#!OML:ASF F:\VICON\USERDATA\INSTALL\rory3\rory3.ASF
:FULLY-SPECIFIED
:DEGREES
115
root 4.48946 16.3436 27.8675 29.4139 -54.8037 -7.80455
lowerback -13.5889 3.0656 -4.61209
upperback -9.05644 4.28159 -0.58894
thorax -2.2651 2.23718 2.44119
lowerneck -6.92835 -0.0783394 -1.72522
upperneck 35.3839 -2.17149 4.75429
head 13.0353 -0.888588 1.82703
rclavicle -1.14276e-013 -2.62396e-014
rhumerus -143.083 -53.5283 83.7272
rradius 11.7654
rwrist 47.0352
rhand -31.9873 36.1871
rfingers 7.12502
rthumb -5.23648 6.27183
lclavicle -1.14276e-013 -2.62396e-014
lhumerus -62.6614 63.6491 3.2452
lradius 28.4846
lwrist 26.3493
lhand -11.5231 19.6524
lfingers 7.12502
lthumb 14.5166 49.1245
rfemur -30.3456 -21.4085 30.3758
rtibia 59.9197
rfoot 38.9277 -26.4815
rtoes 39.2161
lfemur -46.8944 -1.80738 -25.2976
ltibia 48.9742
lfoot -39.6792 18.03
ltoes 18.8734
116
root 4.4839 16.3538 27.8664 29.1753 -54.7404 -7.66775
lowerback -13.5182 3.07212 -4.64977
upperback -9.02989 4.29336 -0.639911
thorax -2.27417 2.24382 2.40685
lowerneck -6.55094 -0.109884 -1.88455
upperneck 35.1987 -2.25126 4.96563
head 12.8809 -0.925592 1.9243
rclavicle 5.58026e-014 3.18055e-015
rhumerus -145.918 -51.7101 85.539
rradius 11.9233
rwrist 46.4442
rhand -32.4321 36.2299
rfingers 7.12502
rthumb -5.66594 6.32566
lclavicle 5.58026e-014 3.18055e-015
lhumerus -61.2669 63.8089 5.97033
lradius 28.7808
lwrist 27.598
lhand -11.9652 20.6922
lfingers 7.12502
lthumb 14.0905 50.1945
rfemur -30.5613 -21.5997 29.7661
rtibia 60.833
rfoot 32.0098 -34.9973
rtoes 46.4901
lfemur -46.7007 -1.93415 -25.2904
ltibia 48.9109
lfoot -39.7182 17.8754
ltoes 19.7521
117
root 4.48267 16.353 27.8644 29.1126 -54.6639 -7.72722
lowerback -13.452 3.08432 -4.62899
upperback -8.97205 4.30935 -0.638703
thorax -2.24673 2.25087 2.39647
lowerneck -6.31614 -0.125901 -1.75767
upperneck 34.9705 -2.25329 4.87339
head 12.7299 -0.923589 1.86064
rclavicle 4.56584e-015 2.62396e-014
rhumerus -148.986 -49.4676 87.6243
rradius 12.1527
rwrist 46.1947
rhand -32.6627 36.0982
rfingers 7.12502
rthumb -5.88856 6.20006
lclavicle 4.56584e-015 2.62396e-014
lhumerus -58.0779 63.1028 11.1476
lradius 29.838
lwrist 30.428
lhand -10.0102 19.7225
lfingers 7.12502
lthumb 15.9738 49.0838
rfemur -31.092 -22.9712 29.8016
rtibia 61.899
rfoot 31.805 -35.8717
rtoes 47.2108
lfemur -46.6022 -2.09177 -25.1622
ltibia 48.9054
lfoot -39.8514 17.7062
ltoes 20.7188
118
root 4.48784 16.3437 27.8522 28.9826 -54.6817 -7.67356
lowerback -13.2249 3.04626 -4.77956
upperback -9.01887 4.2617 -0.604769
thorax -2.43053 2.23958 2.4943
lowerneck -5.84505 -0.0834543 -1.56063
upperneck 34.7223 -2.12968 4.60601
head 12.5132 -0.883297 1.73145
rclavicle -1.13245e-014 -6.36111e-015
rhumerus -150.681 -48.4096 88.0328
rradius 12.2506
rwrist 44.5534
rhand -33.0898 36.0136
rfingers 7.12502
rthumb -6.30086 6.12731
lclavicle -1.13245e-014 -6.36111e-015
lhumerus -59.5522 64.6392 10.209
lradius 28.9335
lwrist 29.8847
lhand -13.1691 22.7532
lfingers 7.12502
lthumb 12.9302 52.3326
rfemur -31.7613 -24.163 29.8399
rtibia 63.0209
rfoot 30.712 -36.6751
rtoes 45.6669
lfemur -46.6415 -2.1946 -25.1453
ltibia 48.9718
lfoot -39.9591 17.732
ltoes 21.2715
119
root 4.49229 16.3421 27.8455 28.7716 -54.6932 -7.50639
lowerback -13.0301 3.06302 -4.93686
upperback -9.04594 4.28959 -0.623843
thorax -2.5784 2.26453 2.55068
lowerneck -5.53719 -0.116798 -1.37916
upperneck 34.5867 -2.13374 4.38359
head 12.3873 -0.893089 1.61041
rclavicle 1.93256e-014 2.46493e-014
rhumerus -150.888 -49.1991 86.4817
rradius 12.3543
rwrist 40.8177
rhand -33.6934 35.9925
rfingers 7.12502
rthumb -6.88357 6.12438
lclavicle 1.93256e-014 2.46493e-014
lhumerus -62.0406 66.6717 8.05236
lradius 27.5224
lwrist 28.4272
lhand -18.7684 29.3588
lfingers 7.12502
lthumb 7.52872 59.2048
rfemur -32.4942 -25.1149 29.6661
rtibia 64.2875
rfoot 28.3337 -39.1714
rtoes 48.0353
lfemur -46.7132 -2.0249 -25.3106
ltibia 49.0497
lfoot -39.4794 18.2849
ltoes 20.3398
120
root 4.49783 16.3369 27.8399 28.6673 -54.6283 -7.50267
lowerback -12.8086 3.07727 -5.00479
upperback -9.0656 4.30514 -0.57001
thorax -2.72994 2.28195 2.63084
lowerneck -5.31596 -0.178521 -1.29411
upperneck 34.4518 -2.17664 4.21382
head 12.2831 -0.924307 1.52317
rclavicle 1.79652e-014 2.38542e-015
rhumerus -150.846 -50.3281 84.722
rradius 12.2087
rwrist 36.839
rhand -34.6046 36.0228
rfingers 7.12502
rthumb -7.76318 6.18528
lclavicle 1.79652e-014 2.38542e-015
lhumerus -55.3973 64.3182 17.8697
lradius 29.6517
lwrist 32.9695
lhand -24.8009 37.6535
lfingers 7.12502
lthumb 1.70388 67.6264
rfemur -33.2304 -26.1926 29.5822
rtibia 65.6931
rfoot 25.6825 -41.5532
rtoes 50.4239
lfemur -46.8315 -0.675663 -25.7997
ltibia 49.1516
lfoot -38.1611 18.0926
ltoes 19.1523
121
root 4.50282 16.3336 27.8353 28.3726 -54.5809 -7.26186
lowerback -12.6652 3.09359 -5.09969
upperback -9.02804 4.33189 -0.646354
thorax -2.77075 2.29901 2.59861
lowerneck -5.12326 -0.248028 -1.15499
upperneck 34.2642 -2.25643 4.1099
head 12.1651 -0.95659 1.44721
rclavicle 3.27001e-014 -8.74653e-015
rhumerus -150.989 -51.309 83.1156
rradius 12.005
rwrist 32.5783
rhand -35.1154 35.9222
rfingers 7.12502
rthumb -8.25619 6.10352
lclavicle 3.27001e-014 -8.74653e-015
lhumerus -55.8866 65.965 18.0354
lradius 28.5102
lwrist 31.6414
lhand -28.0911 42.7579
lfingers 7.12502
lthumb -1.47392 72.7326
rfemur -34.052 -27.3721 29.3585
rtibia 67.2537
rfoot 24.7197 -42.7083
rtoes 49.8399
lfemur -46.8009 -1.48153 -25.7232
ltibia 49.218
lfoot -38.5711 18.8626
ltoes 19.2569
122
root 4.50932 16.3327 27.8331 28.2471 -54.5095 -7.20425
lowerback -12.6774 3.07231 -5.01913
upperback -8.92573 4.30404 -0.653452
thorax -2.64394 2.27778 2.54948
lowerneck -4.87524 -0.20606 -1.21357
upperneck 34.1168 -2.17778 4.11276
head 12.0496 -0.932213 1.46615
rclavicle -2.12141e-014 -7.15625e-015
rhumerus -156.285 -45.7677 87.8916
rradius 12.5693
rwrist 36.0649
rhand -34.7007 36.6109
rfingers 7.12502
rthumb -7.85587 6.77687
lclavicle -2.12141e-014 -7.15625e-015
lhumerus -57.2059 67.9769 17.1716
lradius 26.9522
lwrist 30.0678
lhand -30.3621 45.8295
lfingers 7.12502
lthumb -3.66711 75.7777
rfemur -34.9202 -28.486 29.1868
rtibia 68.8427
rfoot 23.5019 -44.0574
rtoes 51.9874
lfemur -46.8821 -1.574 -25.7766
ltibia 49.4031
lfoot -38.5057 19.1844
ltoes 19.2933
123
root 4.51562 16.3344 27.8368 28.3867 -54.3905 -7.39186
lowerback -12.7667 3.06996 -4.74836
upperback -8.82325 4.28684 -0.613018
thorax -2.46367 2.25365 2.45031
lowerneck -4.71683 -0.145517 -1.22473
upperneck 33.9265 -2.05169 4.04604
head 11.9324 -0.88582 1.45493
rclavicle 5.45757e-014 2.38542e-015
rhumerus -158.043 -44.9601 88.1389
rradius 12.8531
rwrist 34.3851
rhand -34.72 36.769
rfingers 7.12502
rthumb -7.87454 6.93565
lclavicle 5.45757e-014 2.38542e-015
lhumerus -59.8184 70.3158 15.0096
lradius 25.3938
lwrist 28.2754
lhand -32.1913 47.1949
lfingers 7.12502
lthumb -5.43348 77.1052
rfemur -35.86 -29.4594 29.0468
rtibia 70.566
rfoot 19.9819 -46.2876
rtoes 54.2382
lfemur -47.0485 -1.35845 -25.76
ltibia 49.5716
lfoot -38.18 19.1898
ltoes 20.4431
124
root 4.5379 16.3339 27.8535 29.7054 -53.6477 -9.45746
lowerback -12.4558 3.20855 -2.94172
upperback -8.63348 4.30466 -0.265363
thorax -2.29996 2.19285 1.80149
lowerneck -4.66701 -0.116415 -1.13015
upperneck 33.7144 -1.94565 3.85166
head 11.8281 -0.847331 1.37419
rclavicle 1.39646e-013 2.94201e-014
rhumerus -158.747 -46.4302 86.8767
rradius 13.1231
rwrist 30.6615
rhand -34.716 36.0903
rfingers 7.12502
rthumb -7.87062 6.25684
lclavicle 1.39646e-013 2.94201e-014
lhumerus -58.621 71.0416 17.7593
lradius 25.03
lwrist 27.7979
lhand -32.7175 47.6835
lfingers 7.12502
lthumb -5.94151 77.5802
rfemur -36.4454 -30.957 30.3951
rtibia 72.1132
rfoot 25.831 -44.5653
rtoes 51.3562
lfemur -46.9114 -3.12034 -23.73
ltibia 49.8233
lfoot -39.2191 20.2121
ltoes 22.6502
125
root 4.54017 16.3276 27.8544 29.3156 -54.0377 -9.2224
lowerback -12.4751 3.24569 -3.18985
upperback -8.4289 4.3884 -0.273118
thorax -2.09702 2.24246 1.9481
lowerneck -4.47137 -0.098295 -0.997593
upperneck 33.4437 -1.84964 3.61577
head 11.671 -0.816151 1.26985
rclavicle 1.16912e-013 1.74931e-014
rhumerus -159.747 -47.1322 86.1582
rradius 13.2378
rwrist 28.2998
rhand -35.0605 35.2249
rfingers 7.12502
rthumb -8.20312 5.40415
lclavicle 1.16912e-013 1.74931e-014
lhumerus -49.033 68.0193 30.6224
lradius 27.0656
lwrist 32.0577
lhand -33.5292 48.5505
lfingers 7.12502
lthumb -6.72512 78.4237
rfemur -37.3587 -31.5648 29.7473
rtibia 74.1649
rfoot 21.3448 -46.9784
rtoes 54.15
lfemur -46.6968 -3.66898 -23.8595
ltibia 49.8548
lfoot -39.7498 20.7436
ltoes 22.897
126
root 4.54783 16.3206 27.836 28.4827 -54.278 -8.23481
lowerback -12.4303 3.0761 -3.98779
upperback -8.31478 4.24448 -0.316335
thorax -2.05504 2.20079 2.33356
lowerneck -4.07904 -0.00198636 -0.909242
upperneck 33.0703 -1.63555 3.39633
head 11.4312 -0.737786 1.19199
rclavicle 7.69669e-014 3.81667e-014
rhumerus -160.575 -48.1271 85.3513
rradius 13.0647
rwrist 25.7205
rhand -35.7775 34.9418
rfingers 7.12502
rthumb -8.89507 5.14934
lclavicle 7.69669e-014 3.81667e-014
lhumerus -45.3727 67.4729 35.9365
lradius 26.9514
lwrist 32.8577
lhand -33.7906 47.2826
lfingers 7.12502
lthumb -6.97746 77.1476
rfemur -38.7518 -32.6015 29.0313
rtibia 76.4084
rfoot 17.686 -48.6336
rtoes 56.1805
lfemur -46.7083 -3.51984 -24.6156
ltibia 49.7951
lfoot -39.3322 20.8929
ltoes 22.2221
127
root 4.5666 16.314 27.8311 27.827 -54.2763 -7.59505
lowerback -12.2045 2.92834 -4.24109
upperback -8.2398 4.06858 -0.36489
thorax -2.10092 2.12248 2.39685
lowerneck -3.54132 0.131553 -0.918017
upperneck 32.6471 -1.4195 3.38726
head 11.1481 -0.648564 1.20866
rclavicle -7.647e-015 2.70347e-014
rhumerus -160.325 -50.8888 83.1997
rradius 12.7984
rwrist 21.5961
rhand -36.8744 34.8637
rfingers 7.12502
rthumb -9.9535 5.11902
lclavicle -7.647e-015 2.70347e-014
lhumerus -39.8962 64.5161 44.154
lradius 28.4041
lwrist 35.513
lhand -33.7682 46.3569
lfingers 7.12502
lthumb -6.95579 76.2226
rfemur -40.1208 -34.1049 28.5698
rtibia 78.67
rfoot 19.9739 -48.517
rtoes 55.5233
lfemur -46.5799 -3.66224 -25.0449
ltibia 49.6762
lfoot -39.0909 20.984
ltoes 22.6088
128
root 4.58658 16.3102 27.8354 27.0264 -54.4144 -6.82827
lowerback -12.0518 2.84826 -4.55376
upperback -8.0765 3.99511 -0.427892
thorax -2.02447 2.09458 2.49556
lowerneck -3.25477 0.189675 -1.05772
upperneck 32.3796 -1.28893 3.34387
head 10.9817 -0.613065 1.22797
rclavicle -1.31241e-013 -2.70347e-014
rhumerus -159.769 -54.2349 80.8343
rradius 12.6557
rwrist 17.1244
rhand -37.8144 34.5892
rfingers 7.12502
rthumb -10.8603 4.88998
lclavicle -1.31241e-013 -2.70347e-014
lhumerus -35.9471 63.1954 49.597
lradius 27.6064
lwrist 32.8683
lhand -31.3575 45.5777
lfingers 7.12502
lthumb -4.6283 75.5071
rfemur -41.4184 -35.4248 27.8209
rtibia 80.9205
rfoot 22.5831 -48.2992
rtoes 55.6425
lfemur -46.3557 -3.4955 -25.7281
ltibia 49.5776
lfoot -38.8412 20.8848
ltoes 23.0625
129
root 4.59993 16.3157 27.8387 27.2938 -54.1629 -7.81188
lowerback -11.599 2.89528 -3.8381
upperback -7.79658 3.9953 -0.152443
thorax -1.93374 2.07376 2.36828
lowerneck -3.26106 0.21599 -1.13921
upperneck 32.2926 -1.1873 3.19285
head 10.945 -0.591401 1.19652
rclavicle 2.49661e-014 -1.66979e-014
rhumerus -159.08 -57.985 78.3418
rradius 12.8725
rwrist 12.08
rhand -38.5478 34.1722
rfingers 7.12502
rthumb -11.5676 4.51147
lclavicle 2.49661e-014 -1.66979e-014
lhumerus -33.5222 62.7072 53.3374
lradius 26.2877
lwrist 29.3637
lhand -27.674 42.6658
lfingers 7.12502
lthumb -1.0711 72.6429
rfemur -41.9935 -36.4347 28.0564
rtibia 82.8715
rfoot 22.9603 -48.4613
rtoes 56.3156
lfemur -45.8481 -3.74163 -25.0087
ltibia 49.6184
lfoot -39.1027 20.999
ltoes 23.7614
